<svg version="1.1" xmlns="http://www.w3.org/2000/svg" xmlns:xlink="http://www.w3.org/1999/xlink">

  <svg id="user-2" width="0" height="0" viewBox="0 0 32 32">
    <path d="M27.447,21.032C24.874,27.108,19.628,32,16,32c-3.627,0-8.874-4.892-11.447-10.968
    c-2.499-0.396-2.542-5.399-2.542-5.399c-0.083-0.708,0.33-1.355,0.998-1.729C3.051,5.128,8.85,0,16,0
    c7.15,0,12.949,5.128,12.992,13.904c0.667,0.373,1.08,1.021,0.997,1.729C29.989,15.633,29.946,20.637,27.447,21.032z M26.114,15.08
    c0.037-0.391,0.063-0.781,0.064-1.17c-0.553,0.046-1.111,0.076-1.682,0.076c-4.25,0-8.048-1.343-10.694-3.458
    c0.166,1.455,0.677,3.016,1.938,4.169c0,0-3.278,0.401-6.34-2.886c-1.048,0.943-2.248,1.722-3.567,2.282
    c0.005,0.326,0.036,0.653,0.067,0.98c-0.726,0.218-1.102,1.256-0.837,2.364s1.068,1.865,1.815,1.731
    c1.948,5.132,6.204,9.467,9.123,9.467s7.186-4.334,9.136-9.466c0.743,0.124,1.54-0.63,1.802-1.732
    C27.201,16.338,26.831,15.307,26.114,15.08z M19.999,20C18.895,20,18,19.104,18,18s0.895-2,1.999-2c1.104,0,1.999,0.896,1.999,2
    S21.103,20,19.999,20z M19.999,23.271c0,1.099-2.343,1.822-3.999,1.822c-1.655,0-3.999-0.724-3.999-1.822
    c0-1.098,2.343-0.24,3.999-0.24C17.656,23.031,19.999,22.174,19.999,23.271z M12.001,20c-1.104,0-2-0.896-2-2s0.896-2,2-2
    s2,0.896,2,2S13.105,20,12.001,20z"></path>
  </svg>

  <svg id="web-browser" viewBox="0 0 100 100" enable-background="new 0 0 100 100" xml:space="preserve" height="0" width="0">
    <path  d="M5.333,8.5v13v53.167H95V21.5v-13H5.333z M92,71.667H8.333V21.5H92V71.667z M92,18.5H8.333v-7H92V18.5z"/>
    <rect x="87.333" y="25.333" width="3" height="43.667"/>
    <rect x="11.167" y="13.5" width="50.125" height="3"/>
    <rect x="11.167" y="26.25" width="36.375" height="3"/>
    <rect x="11.167" y="31.75" width="36.375" height="3"/>
    <rect x="11.167" y="37.249" width="50.125" height="3"/>
    <rect x="11.167" y="42.748" width="50.125" height="3"/>
    <rect x="11.167" y="48.247" width="46.208" height="3"/>
    <rect x="11.167" y="53.745" width="46.208" height="3"/>
    <rect x="11.167" y="59.244" width="50.125" height="3"/>
    <rect x="11.167" y="64.743" width="43.417" height="3"/>
    <rect x="87.333" y="13.5" width="2.961" height="3"/>
    <rect x="82.417" y="13.5" width="2.96" height="3"/>
    <rect x="77.5" y="13.5" width="2.961" height="3"/>
  </svg>

  <svg id="laptop" width="0" height="0" viewBox="0 0 100 100" enable-background="new 0 0 100 100" xml:space="preserve">
    <path d="M94.902,78.723c-0.849-2.129-5.944-9.176-8.679-14.485c-0.517-1.003-1.132-1.64-1.751-2.032    c0.833-0.663,1.373-1.716,1.373-2.912l0.015-44.03c0.003-2.009-1.528-3.64-3.422-3.643l-64.715-0.026    c-1.889,0-3.422,1.631-3.424,3.641L14.283,59.27c0,1.016,0.388,1.927,1.019,2.587c-0.39,0.367-0.764,0.849-1.106,1.473  
      C11.359,68.593,5.59,75.88,4.699,77.987c-0.603,1.439-4.129,7.09,1.215,7.285c0.17,0.008,0.372,0.011,0.601,0.017l-0.073,0.026  
      c0,0,0.824,0.009,2.307,0.019c3.786,0.068,10.305,0.125,18.095,0.184c24.262,0.232,62.079,0.572,66.709,0.461    C98.902,85.86,95.477,80.168,94.902,78.723z M49.561,14.27c0.313,0.002,0.568,0.255,0.567,0.573   
     c0.002,0.315-0.256,0.569-0.571,0.567c-0.315,0.002-0.565-0.257-0.567-0.571C48.99,14.526,49.242,14.267,49.561,14.27z     M19.719,17.299l59.869,0.021l-0.019,39.629l-59.867-0.023L19.719,17.299z M41.074,83.736l1.715-8.411l16.249,0.008l1.851,8.41    L41.074,83.736z M12.996,73.604l5.847-8.696l62.153,0.176l5.268,8.549L12.996,73.604z"/>
  </svg>

  <svg id="flow-icon" width="0" height="0" viewBox="0 0 100 100" enable-background="new 0 0 100 100" xml:space="preserve">
    <path d="M74.437,53.959c1.589-1.589,1.589-4.166,0-5.755c-0.416-0.416-40.529-25.479-40.766-25.598l-0.03-0.019l-0.002,0.001  c-0.539-0.263-1.136-0.424-1.775-0.424c-2.015,0-3.676,1.468-4.001,3.391L27.794,75.93c0,2.247,1.822,4.069,4.069,4.069  c0.635,0,1.228-0.158,1.763-0.417L74.437,53.959z"/>
  </svg>

</svg>
